<svg xmlns="http://www.w3.org/2000/svg" viewBox="0 0 157.00 94.00" width="157" height="94" role="img">
  <title>Founders VN wavy mark - vector traced dark</title>
  <path fill="#00251f" fill-rule="evenodd" d="M 6.50 6.00 L 22.50 6.00 L 23.00 6.50 L 23.00 7.00 L 24.00 8.00 L 24.00 9.75 L 25.00 11.00 L 25.00 12.50 L 26.00 13.75 L 26.00 15.00 L 27.00 16.50 L 27.00 17.75 L 28.00 19.25 L 28.00 20.50 L 28.25 20.50 L 28.50 21.50 L 29.00 21.75 L 29.00 23.25 L 30.00 24.75 L 30.00 26.00 L 31.00 27.50 L 31.00 28.75 L 31.25 28.75 L 31.50 29.75 L 32.00 30.00 L 32.00 31.50 L 33.00 32.75 L 33.00 34.00 L 34.00 35.50 L 34.00 36.75 L 35.00 38.25 L 35.25 40.00 L 36.00 40.75 L 36.00 42.00 L 37.00 43.25 L 37.00 44.75 L 38.00 45.75 L 38.00 47.25 L 38.25 47.25 L 38.50 48.25 L 39.00 48.50 L 39.25 50.50 L 40.00 51.25 L 40.00 52.75 L 41.00 53.75 L 41.00 55.00 L 42.00 56.50 L 42.00 57.75 L 43.00 58.75 L 43.00 60.25 L 44.00 61.25 L 44.00 62.50 L 45.00 63.50 L 45.00 64.50 L 45.25 64.50 L 45.25 65.00 L 45.75 65.00 L 46.50 66.75 L 47.75 68.00 L 48.25 68.00 L 48.75 68.75 L 50.00 69.00 L 50.50 69.75 L 51.25 69.75 L 51.25 70.00 L 57.50 69.75 L 58.00 69.00 L 58.75 69.00 L 58.75 68.75 L 59.75 68.50 L 60.00 68.00 L 60.50 68.00 L 62.00 66.50 L 62.00 66.00 L 62.75 65.50 L 63.00 64.50 L 63.75 64.00 L 64.00 62.75 L 65.00 61.25 L 65.00 59.50 L 65.75 58.75 L 66.00 55.75 L 67.00 54.50 L 67.00 51.75 L 67.75 51.00 L 68.00 48.50 L 68.25 48.50 L 68.25 48.00 L 68.75 47.50 L 68.75 46.50 L 69.00 46.50 L 69.00 44.75 L 69.75 44.00 L 70.00 40.75 L 71.00 39.25 L 71.00 37.25 L 71.75 36.50 L 72.00 33.50 L 72.75 32.50 L 73.00 31.00 L 74.00 31.00 L 74.00 32.75 L 73.25 33.50 L 73.25 34.50 L 73.00 34.50 L 73.00 36.50 L 72.50 36.75 L 72.25 38.25 L 72.00 38.25 L 72.00 40.25 L 71.25 41.00 L 71.00 44.00 L 70.25 44.50 L 70.25 45.25 L 70.00 45.25 L 70.00 47.50 L 69.00 49.00 L 69.00 51.25 L 68.25 52.25 L 68.00 55.00 L 67.25 55.75 L 67.00 58.75 L 66.25 59.50 L 66.00 62.75 L 65.00 64.25 L 65.00 66.25 L 64.00 67.75 L 64.00 70.25 L 63.00 71.50 L 63.00 73.50 L 62.00 75.00 L 62.00 76.25 L 61.25 77.25 L 61.00 79.00 L 60.25 79.50 L 60.00 81.00 L 59.25 81.50 L 59.25 82.00 L 58.25 83.00 L 58.25 83.50 L 54.75 86.75 L 53.50 87.00 L 52.25 88.00 L 50.25 88.00 L 50.25 88.25 L 48.50 88.25 L 48.50 88.50 L 43.50 88.00 L 42.75 87.25 L 41.50 87.00 L 41.00 86.25 L 40.00 86.00 L 38.75 84.75 L 38.25 84.75 L 38.25 84.25 L 37.75 83.75 L 37.25 83.75 L 37.25 83.25 L 36.50 82.75 L 36.00 81.50 L 35.00 80.75 L 34.75 79.75 L 34.25 79.50 L 34.00 78.25 L 33.25 77.75 L 33.00 76.25 L 32.00 75.00 L 31.75 73.25 L 31.00 72.50 L 31.00 71.25 L 30.00 70.00 L 30.00 68.50 L 29.00 67.25 L 29.00 66.00 L 28.00 64.50 L 28.00 63.25 L 27.00 62.00 L 27.00 60.75 L 26.00 59.50 L 26.00 58.25 L 25.00 57.00 L 25.00 55.75 L 24.75 55.75 L 24.50 54.75 L 24.00 54.50 L 23.75 52.50 L 23.00 52.00 L 23.00 50.25 L 22.00 49.25 L 21.75 47.25 L 21.00 46.50 L 20.75 44.75 L 20.00 44.25 L 19.75 42.25 L 19.00 41.75 L 19.00 40.25 L 18.75 40.25 L 18.50 39.25 L 18.00 39.00 L 18.00 37.50 L 17.00 36.25 L 16.75 34.25 L 16.00 33.75 L 16.00 32.25 L 15.00 31.00 L 14.75 29.25 L 14.00 28.50 L 14.00 27.25 L 13.00 26.25 L 13.00 24.75 L 12.75 24.75 L 12.50 23.75 L 12.00 23.50 L 11.75 21.50 L 11.25 21.25 L 10.75 19.00 L 10.00 18.25 L 10.00 17.00 L 9.00 15.75 L 9.00 14.25 L 8.00 13.00 L 8.00 12.00 L 7.00 10.50 L 7.00 9.25 L 6.00 8.25 L 6.00 6.50 Z M 81.75 6.00 L 85.50 6.00 L 85.50 6.25 L 86.50 6.25 L 86.50 6.50 L 87.25 6.50 L 88.00 7.00 L 89.50 7.00 L 90.25 7.75 L 91.75 8.00 L 92.50 9.00 L 93.50 9.25 L 95.25 11.00 L 95.75 11.00 L 96.00 11.75 L 96.50 11.75 L 97.00 12.25 L 97.00 12.75 L 98.00 13.50 L 98.00 14.00 L 98.75 14.50 L 99.25 16.00 L 100.00 16.25 L 100.00 17.25 L 101.00 18.25 L 101.25 19.50 L 102.00 20.00 L 102.50 21.75 L 103.00 22.00 L 103.25 23.75 L 104.00 24.25 L 104.00 25.75 L 104.75 26.25 L 105.00 27.75 L 105.25 27.75 L 105.50 28.75 L 106.00 29.00 L 106.00 30.25 L 107.00 31.25 L 107.00 32.75 L 107.75 33.50 L 108.25 35.50 L 109.00 36.25 L 109.00 37.25 L 110.00 38.50 L 110.00 39.75 L 111.00 40.75 L 111.25 42.75 L 112.00 43.25 L 112.00 44.75 L 113.00 45.75 L 113.00 46.75 L 114.00 48.00 L 114.00 49.25 L 115.00 50.50 L 115.00 51.75 L 116.00 52.75 L 116.25 54.50 L 117.00 55.00 L 117.00 56.25 L 118.00 57.25 L 118.00 58.50 L 119.00 59.75 L 119.25 61.50 L 120.00 62.00 L 120.00 63.50 L 121.00 64.25 L 121.00 65.50 L 121.75 66.25 L 122.25 68.00 L 123.00 68.50 L 123.00 69.50 L 124.00 70.25 L 125.00 72.50 L 128.50 76.00 L 129.25 76.00 L 129.75 76.75 L 131.00 77.00 L 132.25 78.00 L 134.25 78.00 L 135.00 78.50 L 136.25 78.50 L 137.00 77.75 L 137.00 6.50 L 137.50 6.00 L 149.75 6.00 L 150.50 6.50 L 150.50 7.00 L 150.75 7.00 L 150.75 87.50 L 150.25 88.00 L 139.25 88.00 L 139.25 88.25 L 121.25 88.00 L 119.75 87.00 L 118.25 86.75 L 117.75 86.00 L 117.00 86.00 L 116.75 85.50 L 115.50 85.00 L 114.75 84.00 L 114.25 84.00 L 114.00 83.25 L 113.25 83.00 L 113.00 82.25 L 111.75 81.25 L 110.75 79.00 L 110.00 78.75 L 109.75 77.25 L 109.00 76.75 L 108.75 75.50 L 108.00 74.75 L 107.75 73.25 L 107.00 72.75 L 107.00 71.25 L 106.00 70.50 L 106.00 69.25 L 105.25 68.50 L 104.75 66.50 L 104.00 65.75 L 104.00 64.50 L 103.00 63.50 L 103.00 62.25 L 102.00 61.25 L 102.00 60.25 L 101.00 59.00 L 100.75 57.50 L 100.00 57.00 L 100.00 55.75 L 99.00 54.50 L 99.00 53.25 L 98.25 52.75 L 98.00 51.25 L 97.00 50.00 L 96.75 48.25 L 96.00 47.75 L 95.75 46.25 L 95.00 45.75 L 95.00 44.50 L 94.00 43.50 L 94.00 42.25 L 93.00 41.50 L 93.00 40.25 L 92.00 39.25 L 92.00 38.25 L 91.25 37.75 L 91.00 36.25 L 90.00 35.50 L 90.00 34.25 L 89.00 33.50 L 89.00 32.75 L 88.00 31.75 L 88.00 31.25 L 83.75 27.25 L 82.25 27.00 L 82.00 26.50 L 81.50 26.50 L 81.00 26.00 L 78.50 26.00 L 78.50 25.75 L 72.25 26.00 L 70.75 27.00 L 69.25 27.25 L 68.75 28.00 L 68.00 28.00 L 67.00 29.00 L 66.00 29.25 L 66.00 29.75 L 65.50 29.75 L 63.00 32.25 L 63.00 32.75 L 62.50 32.75 L 61.75 33.50 L 61.75 34.00 L 61.25 34.00 L 61.00 33.25 L 61.75 32.25 L 62.00 30.00 L 63.00 28.25 L 63.00 26.50 L 63.75 26.00 L 64.00 24.00 L 65.00 22.75 L 65.00 21.25 L 65.75 20.75 L 66.00 19.00 L 66.75 18.25 L 67.00 17.00 L 67.75 16.50 L 67.75 16.00 L 68.00 16.00 L 68.25 15.00 L 68.75 15.00 L 69.00 14.00 L 70.00 13.25 L 70.25 12.25 L 72.50 10.00 L 73.00 10.00 L 74.00 9.00 L 75.00 8.75 L 75.50 8.00 L 77.00 7.75 L 77.75 7.00 L 79.00 7.00 L 79.00 6.75 L 80.00 6.75 L 80.00 6.50 L 81.75 6.25 Z"/>
</svg>
