<svg xmlns="http://www.w3.org/2000/svg" viewBox="0 0 216.00 218.00" width="216" height="218" role="img">
  <title>Founders VN wavy mark on rounded square</title>
  <rect x="15" y="14" width="194" height="195" rx="40" fill="#00251f"/>
  <path transform="translate(30 55)" fill="#f7f6ef" fill-rule="evenodd" d="M 7.50 14.00 L 23.50 14.00 L 24.00 14.50 L 24.00 15.00 L 25.00 16.00 L 25.00 17.75 L 26.00 19.00 L 26.00 20.50 L 27.00 21.75 L 27.00 23.00 L 28.00 24.50 L 28.00 25.75 L 29.00 27.25 L 29.00 28.50 L 29.25 28.50 L 29.50 29.50 L 30.00 29.75 L 30.00 31.25 L 31.00 32.75 L 31.00 34.00 L 32.00 35.50 L 32.00 36.75 L 32.25 36.75 L 32.50 37.75 L 33.00 38.00 L 33.00 39.50 L 34.00 40.75 L 34.00 42.00 L 35.00 43.50 L 35.00 44.75 L 36.00 46.25 L 36.25 48.00 L 37.00 48.75 L 37.00 50.00 L 38.00 51.25 L 38.00 52.75 L 39.00 53.75 L 39.00 55.25 L 39.25 55.25 L 39.50 56.25 L 40.00 56.50 L 40.25 58.50 L 41.00 59.25 L 41.00 60.75 L 42.00 61.75 L 42.00 63.00 L 43.00 64.50 L 43.00 65.75 L 44.00 66.75 L 44.00 68.25 L 45.00 69.25 L 45.00 70.50 L 46.00 71.50 L 46.00 72.50 L 46.25 72.50 L 46.25 73.00 L 46.75 73.00 L 47.50 74.75 L 48.75 76.00 L 49.25 76.00 L 49.75 76.75 L 51.00 77.00 L 51.50 77.75 L 52.25 77.75 L 52.25 78.00 L 58.50 77.75 L 59.00 77.00 L 59.75 77.00 L 59.75 76.75 L 60.75 76.50 L 61.00 76.00 L 61.50 76.00 L 63.00 74.50 L 63.00 74.00 L 63.75 73.50 L 64.00 72.50 L 64.75 72.00 L 65.00 70.75 L 66.00 69.25 L 66.00 67.50 L 66.75 66.75 L 67.00 63.75 L 68.00 62.50 L 68.00 59.75 L 68.75 59.00 L 69.00 56.50 L 69.25 56.50 L 69.25 56.00 L 69.75 55.50 L 69.75 54.50 L 70.00 54.50 L 70.00 52.75 L 70.75 52.00 L 71.00 48.75 L 72.00 47.25 L 72.00 45.25 L 72.75 44.50 L 73.00 41.50 L 73.75 40.50 L 74.00 39.00 L 75.00 39.00 L 75.00 40.75 L 74.25 41.50 L 74.25 42.50 L 74.00 42.50 L 74.00 44.50 L 73.50 44.75 L 73.25 46.25 L 73.00 46.25 L 73.00 48.25 L 72.25 49.00 L 72.00 52.00 L 71.25 52.50 L 71.25 53.25 L 71.00 53.25 L 71.00 55.50 L 70.00 57.00 L 70.00 59.25 L 69.25 60.25 L 69.00 63.00 L 68.25 63.75 L 68.00 66.75 L 67.25 67.50 L 67.00 70.75 L 66.00 72.25 L 66.00 74.25 L 65.00 75.75 L 65.00 78.25 L 64.00 79.50 L 64.00 81.50 L 63.00 83.00 L 63.00 84.25 L 62.25 85.25 L 62.00 87.00 L 61.25 87.50 L 61.00 89.00 L 60.25 89.50 L 60.25 90.00 L 59.25 91.00 L 59.25 91.50 L 55.75 94.75 L 54.50 95.00 L 53.25 96.00 L 51.25 96.00 L 51.25 96.25 L 49.50 96.25 L 49.50 96.50 L 44.50 96.00 L 43.75 95.25 L 42.50 95.00 L 42.00 94.25 L 41.00 94.00 L 39.75 92.75 L 39.25 92.75 L 39.25 92.25 L 38.75 91.75 L 38.25 91.75 L 38.25 91.25 L 37.50 90.75 L 37.00 89.50 L 36.00 88.75 L 35.75 87.75 L 35.25 87.50 L 35.00 86.25 L 34.25 85.75 L 34.00 84.25 L 33.00 83.00 L 32.75 81.25 L 32.00 80.50 L 32.00 79.25 L 31.00 78.00 L 31.00 76.50 L 30.00 75.25 L 30.00 74.00 L 29.00 72.50 L 29.00 71.25 L 28.00 70.00 L 28.00 68.75 L 27.00 67.50 L 27.00 66.25 L 26.00 65.00 L 26.00 63.75 L 25.75 63.75 L 25.50 62.75 L 25.00 62.50 L 24.75 60.50 L 24.00 60.00 L 24.00 58.25 L 23.00 57.25 L 22.75 55.25 L 22.00 54.50 L 21.75 52.75 L 21.00 52.25 L 20.75 50.25 L 20.00 49.75 L 20.00 48.25 L 19.75 48.25 L 19.50 47.25 L 19.00 47.00 L 19.00 45.50 L 18.00 44.25 L 17.75 42.25 L 17.00 41.75 L 17.00 40.25 L 16.00 39.00 L 15.75 37.25 L 15.00 36.50 L 15.00 35.25 L 14.00 34.25 L 14.00 32.75 L 13.75 32.75 L 13.50 31.75 L 13.00 31.50 L 12.75 29.50 L 12.25 29.25 L 11.75 27.00 L 11.00 26.25 L 11.00 25.00 L 10.00 23.75 L 10.00 22.25 L 9.00 21.00 L 9.00 20.00 L 8.00 18.50 L 8.00 17.25 L 7.00 16.25 L 7.00 14.50 Z M 82.75 14.00 L 86.50 14.00 L 86.50 14.25 L 87.50 14.25 L 87.50 14.50 L 88.25 14.50 L 89.00 15.00 L 90.50 15.00 L 91.25 15.75 L 92.75 16.00 L 93.50 17.00 L 94.50 17.25 L 96.25 19.00 L 96.75 19.00 L 97.00 19.75 L 97.50 19.75 L 98.00 20.25 L 98.00 20.75 L 99.00 21.50 L 99.00 22.00 L 99.75 22.50 L 100.25 24.00 L 101.00 24.25 L 101.00 25.25 L 102.00 26.25 L 102.25 27.50 L 103.00 28.00 L 103.50 29.75 L 104.00 30.00 L 104.25 31.75 L 105.00 32.25 L 105.00 33.75 L 105.75 34.25 L 106.00 35.75 L 106.25 35.75 L 106.50 36.75 L 107.00 37.00 L 107.00 38.25 L 108.00 39.25 L 108.00 40.75 L 108.75 41.50 L 109.25 43.50 L 110.00 44.25 L 110.00 45.25 L 111.00 46.50 L 111.00 47.75 L 112.00 48.75 L 112.25 50.75 L 113.00 51.25 L 113.00 52.75 L 114.00 53.75 L 114.00 54.75 L 115.00 56.00 L 115.00 57.25 L 116.00 58.50 L 116.00 59.75 L 117.00 60.75 L 117.25 62.50 L 118.00 63.00 L 118.00 64.25 L 119.00 65.25 L 119.00 66.50 L 120.00 67.75 L 120.25 69.50 L 121.00 70.00 L 121.00 71.50 L 122.00 72.25 L 122.00 73.50 L 122.75 74.25 L 123.25 76.00 L 124.00 76.50 L 124.00 77.50 L 125.00 78.25 L 126.00 80.50 L 129.50 84.00 L 130.25 84.00 L 130.75 84.75 L 132.00 85.00 L 133.25 86.00 L 135.25 86.00 L 136.00 86.50 L 137.25 86.50 L 138.00 85.75 L 138.00 14.50 L 138.50 14.00 L 150.75 14.00 L 151.50 14.50 L 151.50 15.00 L 151.75 15.00 L 151.75 95.50 L 151.25 96.00 L 140.25 96.00 L 140.25 96.25 L 122.25 96.00 L 120.75 95.00 L 119.25 94.75 L 118.75 94.00 L 118.00 94.00 L 117.75 93.50 L 116.50 93.00 L 115.75 92.00 L 115.25 92.00 L 115.00 91.25 L 114.25 91.00 L 114.00 90.25 L 112.75 89.25 L 111.75 87.00 L 111.00 86.75 L 110.75 85.25 L 110.00 84.75 L 109.75 83.50 L 109.00 82.75 L 108.75 81.25 L 108.00 80.75 L 108.00 79.25 L 107.00 78.50 L 107.00 77.25 L 106.25 76.50 L 105.75 74.50 L 105.00 73.75 L 105.00 72.50 L 104.00 71.50 L 104.00 70.25 L 103.00 69.25 L 103.00 68.25 L 102.00 67.00 L 101.75 65.50 L 101.00 65.00 L 101.00 63.75 L 100.00 62.50 L 100.00 61.25 L 99.25 60.75 L 99.00 59.25 L 98.00 58.00 L 97.75 56.25 L 97.00 55.75 L 96.75 54.25 L 96.00 53.75 L 96.00 52.50 L 95.00 51.50 L 95.00 50.25 L 94.00 49.50 L 94.00 48.25 L 93.00 47.25 L 93.00 46.25 L 92.25 45.75 L 92.00 44.25 L 91.00 43.50 L 91.00 42.25 L 90.00 41.50 L 90.00 40.75 L 89.00 39.75 L 89.00 39.25 L 84.75 35.25 L 83.25 35.00 L 83.00 34.50 L 82.50 34.50 L 82.00 34.00 L 79.50 34.00 L 79.50 33.75 L 73.25 34.00 L 71.75 35.00 L 70.25 35.25 L 69.75 36.00 L 69.00 36.00 L 68.00 37.00 L 67.00 37.25 L 67.00 37.75 L 66.50 37.75 L 64.00 40.25 L 64.00 40.75 L 63.50 40.75 L 62.75 41.50 L 62.75 42.00 L 62.25 42.00 L 62.00 41.25 L 62.75 40.25 L 63.00 38.00 L 64.00 36.25 L 64.00 34.50 L 64.75 34.00 L 65.00 32.00 L 66.00 30.75 L 66.00 29.25 L 66.75 28.75 L 67.00 27.00 L 67.75 26.25 L 68.00 25.00 L 68.75 24.50 L 68.75 24.00 L 69.00 24.00 L 69.25 23.00 L 69.75 23.00 L 70.00 22.00 L 71.00 21.25 L 71.25 20.25 L 73.50 18.00 L 74.00 18.00 L 75.00 17.00 L 76.00 16.75 L 76.50 16.00 L 78.00 15.75 L 78.75 15.00 L 80.00 15.00 L 80.00 14.75 L 81.00 14.75 L 81.00 14.50 L 82.75 14.25 Z"/>
</svg>
