<svg xmlns="http://www.w3.org/2000/svg" width="124" height="52" fill="none">
    <path fill="#fff"
        d="M40.115 23.966a.337.337 0 0 0-.456.057c-1.527 1.778-3.202 2.245-4.935 2.245-3.955 0-6.314-2.701-6.314-6.007 0-3.305 2.644-6.006 5.881-6.006 2.69 0 4.673 1.584 5.528 3.864a.256.256 0 0 1-.24.341h-6.108a.336.336 0 0 0-.342.342v2.918c0 .194.148.342.342.342h11.238c.228 0 .41-.16.444-.387.08-.49.114-.935.114-1.414 0-5.88-4.924-10.622-10.93-10.622-6.007 0-10.93 4.741-10.93 10.622 0 5.882 4.923 10.623 10.93 10.623 3.92 0 6.986-1.607 9.038-4.206a.257.257 0 0 0-.045-.364l-3.215-2.348ZM54.455 23.305v-22.1a.336.336 0 0 0-.342-.343h-4.787a.336.336 0 0 0-.342.342V22.77c0 5.311 1.778 7.693 7.147 7.693h.615c.251 0 .456-.205.456-.456v-3.84a.336.336 0 0 0-.342-.343h-.08c-1.39 0-2.325-.615-2.325-2.518ZM65.852 23.305v-22.1a.336.336 0 0 0-.342-.343h-4.787a.336.336 0 0 0-.342.342V22.77c0 5.311 1.778 7.693 7.146 7.693h.616c.25 0 .456-.205.456-.456v-3.84a.336.336 0 0 0-.342-.343h-.08c-1.39 0-2.325-.615-2.325-2.518ZM3.324 38.315v-4.137c0-.194.148-.342.342-.342h1.892c1.197 0 2.28-1.14 2.827-2.28 0-.011.011-.023.011-.034l.217-.661c.091-.262.08-.547-.034-.798L.03 10.379A.341.341 0 0 1 .35 9.9h4.912c.182 0 .342.103.41.274l5.87 13.005a.23.23 0 0 0 .422 0l5.47-12.982a.449.449 0 0 1 .422-.274h4.97c.25 0 .41.25.319.479L13.16 33.619C11.895 36.697 9 38.68 5.57 38.68H3.678c-.194-.022-.354-.17-.354-.364Z" />
    <path fill="#FCD000"
        d="M115.902 10.072a.371.371 0 0 1 .296-.16h4.798c.103 0 .342.114.274.205L106.84 30.11a.496.496 0 0 1-.399.205h-4.388c-.239 0-.513-.273-.376-.479l14.225-19.763Z" />
    <path fill="#fff"
        d="M93.675 9.924h4.89c.182 0 .353.114.422.285l7.807 19.65a.341.341 0 0 1-.319.467h-4.65a.458.458 0 0 1-.422-.285l-8.035-19.65a.327.327 0 0 1 .307-.467ZM104.89 9.924h4.89a.46.46 0 0 1 .422.285l7.807 19.65a.341.341 0 0 1-.319.467h-4.65a.458.458 0 0 1-.422-.285l-8.035-19.65a.335.335 0 0 1 .307-.467ZM123.276 14.483l-1.789-4.286a.46.46 0 0 0-.422-.285h-4.878c-.251 0-.41.25-.319.479l1.835 4.285c.068.171.239.274.421.274h4.833c.251.011.41-.24.319-.467Z" />
    <path fill="#FCD000"
        d="M83.612 17.822h-3.978a.506.506 0 0 0-.501.502v3.658c0 .274.228.502.501.502h3.978a.506.506 0 0 0 .502-.502v-3.658a.506.506 0 0 0-.502-.502Z" />
    <path fill="#fff"
        d="M75.713 17.982a.588.588 0 0 0 .524-.342c.924-2.018 2.998-3.465 5.357-3.465 2.37 0 4.445 1.39 5.357 3.453a.576.576 0 0 0 .524.342h4.423c.24 0 .399-.194.33-.433-1.22-4.582-5.46-8.013-10.622-8.013-5.164 0-9.415 3.42-10.623 8.013-.057.24.091.433.33.433h4.4v.012ZM87.51 22.381a.576.576 0 0 0-.524.343 5.861 5.861 0 0 1-5.357 3.453c-2.36 0-4.434-1.447-5.357-3.465a.576.576 0 0 0-.524-.342h-4.4c-.239 0-.398.194-.33.433 1.22 4.582 5.46 8.013 10.623 8.013 5.163 0 9.414-3.42 10.622-8.013.057-.24-.09-.433-.33-.433H87.51v.011ZM54.734 36.575c-1.005 0-1.78.426-2.298 1.02v-.807H50v7.762h2.435v-3.79c0-1.187.563-1.933 1.507-1.933.958 0 1.385.67 1.385 1.69v4.033h2.435v-4.52c0-2.055-.96-3.455-3.03-3.455Zm9.842 8.188c2.07 0 3.379-1.218 3.79-2.176l-2.192-.64c-.258.472-.73.792-1.552.792-1.248 0-1.78-.61-1.933-1.34h5.738c.045-.258.06-.532.06-.806 0-2.238-1.49-4.018-4.063-4.018-2.48 0-4.11 1.78-4.11 4.109 0 2.42 1.736 4.079 4.262 4.079Zm-1.887-4.825c.106-.654.715-1.324 1.72-1.324 1.004 0 1.628.624 1.704 1.324H62.69Zm12.704 2.42a1.644 1.644 0 0 1-.822.198c-.548 0-.806-.29-.806-.807v-2.83h2.085v-2.131h-2.085v-2.435h-2.436v2.435h-1.202v2.13h1.202v2.831c0 1.766.853 2.923 2.74 2.923.685 0 1.248-.122 1.902-.38l-.578-1.934Zm12.205-5.57-1.4 4.657-1.416-4.657h-2.024l-1.4 4.657-1.416-4.657h-2.51l2.678 7.762h2.252l1.416-4.353 1.4 4.353h2.252l2.68-7.762h-2.512Zm8.144 7.975c2.42 0 4.17-1.766 4.17-4.094 0-2.329-1.75-4.094-4.17-4.094s-4.17 1.765-4.17 4.094c0 2.328 1.75 4.094 4.17 4.094Zm0-2.192c-1.111 0-1.811-.806-1.811-1.902 0-1.096.7-1.903 1.81-1.903 1.112 0 1.812.807 1.812 1.903s-.7 1.902-1.811 1.902Zm9.239-4.733v-1.05h-2.435v7.762h2.435v-3.242c0-1.918.792-2.618 2.435-2.344v-2.283c-1.141-.152-1.978.32-2.435 1.157Zm10.001 6.712h2.739l-3.135-4.444 2.877-3.318h-2.801l-2.329 2.846v-6.195h-2.435v11.11h2.435v-1.84l.746-.853 1.903 2.694Z" />
</svg>