<?xml version="1.0" encoding="UTF-8"?>
<svg id="Layer_2" data-name="Layer 2" xmlns="http://www.w3.org/2000/svg" viewBox="0 0 893.24 95">
  <defs>
    <style>
      .cls-1 {
        fill: #fff;
      }
    </style>
  </defs>
  <g id="Layer_1-2" data-name="Layer 1">
    <g>
      <g>
        <path class="cls-1" d="m84.04,1.82h-1.81c-4.12,0-7.47,3.34-7.47,7.47v59.01c0,4.13,3.34,7.47,7.47,7.47h1.8v.43h-26.53v-.43h1.75c4.13,0,7.47-3.34,7.47-7.47l-.07-62.64-25.66,55.4h-.6L15.05,8.14l.14,48.51c0,13.41.53,16.66,10.32,19.11h4.14v.43H.71v-.43h3.05c7.43,0,10.77-5.88,10.77-19.29V7.84c0-3.33-2.7-6.02-6.02-6.02h-3.5v-.43h18.15l22.05,48.05L67.84,1.32l16.21.07v.43Z"/>
        <path class="cls-1" d="m144.07,69.27c1.38,3.89,5.06,6.49,9.19,6.49h.73v.43h-28.15v-.43h5.23c3.02,0,5.15-2.98,4.16-5.84l-8.1-23.43-23.46.09-1.69,4.28c-2.76,8.07-5.42,13.35-5.36,17.04.11,7.05,6.25,7.86,10.21,7.86h.83v.43h-23.58v-.43h.1c7.2,0,10.12-3.9,14.76-17.42L119.09,0h.37l24.61,69.27Zm-40.17-23.13l22.88-.04-11.7-33.27-11.18,33.32Z"/>
        <path class="cls-1" d="m171.71,8.83v60.49c0,3.56,2.89,6.45,6.45,6.45h2.83v.43h-26.53v-.43h2.83c3.56,0,6.45-2.89,6.45-6.45V8.83c0-3.87-3.14-7.01-7.01-7.01h-2.26v-.43h26.53v.43h-2.26c-3.87,0-7.01,3.14-7.01,7.01Z"/>
        <path class="cls-1" d="m191.81,13.69c1.79,9.86,10.41,15.67,15.84,18.59,12.63,6.77,19.7,10.85,19.7,22.97,0,13.3-14.11,20.84-22.92,20.84-7.25,0-7.2-.87-12.97-3.24-3.96-.33-7.11.06-7.74,4.05h-.29l-.08-23.84h.39c.77,17.13,11.3,22.62,20.4,22.62s14.81-7.5,14.98-14.97c.13-5.48-2.22-12.33-15.91-18.26-9.01-3.9-17.21-11.22-17.21-22.97S195.86-.01,205.95.4c5.61.23,8.22,2.14,10.93,3.36,3.77.05,6.98.14,7.42-3.17h.29l.11,20.39h-.39c-2.36-12.93-8.72-20.16-18.41-20.16-6.74,0-15.58,4.67-14.1,12.87Z"/>
        <path class="cls-1" d="m291.76,38.38c0,18.46-12.42,38.16-32.01,38.16s-32.06-19.7-32.06-38.16S240.15.21,259.75.21s32.01,19.7,32.01,38.16ZM259.75.62c-17.55,0-23.29,19.5-23.29,37.75s5.73,37.75,23.29,37.75,23.24-19.5,23.24-37.75S277.3.62,259.75.62Z"/>
        <path class="cls-1" d="m336.41,1.69h29.41v.43h-3.68c-6.85,0-10.72,5.7-10.72,12.78v61.19h-.4L300.86,6.71v56.01c0,11.65,7.89,12.97,10.52,12.97h4.04v.43h-29.44v-.43h3.65c3.79,0,10.77-1.11,10.77-12.97V4.65h0c-1.06-1.54-2.81-2.46-4.68-2.46h-5.29v-.43h18.1l42.43,59.68V14.89c0-10.53-6.33-12.78-10.52-12.78h-4.04v-.43Z"/>
        <rect class="cls-1" x="0" y="90.31" width="352.77" height="4.69"/>
      </g>
      <g>
        <path class="cls-1" d="m892.72,67.29h.52l-2.97,27.71h-69.41v-.53h3.46c5.22,0,9.46-4.23,9.46-9.46V10.59c0-4.57-3.71-8.28-8.28-8.28h-4.24v-.53l66.04-.32v24.2h-.52l-2.07-8.83c-.76-.76-.61-14.52-21.19-14.52h-19.34v45.75h5.66c4.1,0,11.12-.2,13.53-.87,5.99-1.66,9.26-7.51,9.45-15.37h.52v32.47h-.52c-.33-9.79-3.53-13.31-9.19-14.91-2.28-.67-9.5-.8-13.79-.8h-5.66v36.57c0,5.14,4.17,9.31,9.31,9.31h10.22c14.54-.33,20.15-5.31,24.59-13.82,1.53-2.94,2.67-6.07,3.44-9.3l.96-4.06Z"/>
        <path class="cls-1" d="m432.3,1.78c31.85,0,41.19,27.78,41.19,47.35,0,22.58-15.45,45.88-39.33,45.88h-44.78v-.53h4c4.48,0,8.11-3.63,8.11-8.11V9.73c0-4.1-3.32-7.42-7.42-7.42h-4.69v-.53h42.92Zm-20.39,9.1v74.83c0,4.84,3.92,8.77,8.77,8.77h13.42c19.28,0,27.97-29,27.97-44.88,0-13.45-5.1-47.28-29.25-47.28h-12.34c-4.73,0-8.57,3.84-8.57,8.57Z"/>
        <path class="cls-1" d="m779.88,1.78c31.85,0,41.19,27.78,41.19,47.35,0,22.58-15.45,45.88-39.33,45.88h-44.78v-.53h4c4.48,0,8.11-3.63,8.11-8.11V9.73c0-4.1-3.32-7.42-7.42-7.42h-4.69v-.53h42.92Zm-20.39,9.1v74.83c0,4.84,3.92,8.77,8.77,8.77h13.42c19.28,0,27.97-29,27.97-44.88,0-13.45-5.1-47.28-29.25-47.28h-12.34c-4.73,0-8.57,3.84-8.57,8.57Z"/>
        <path class="cls-1" d="m545.87,67.29h.52l-2.97,27.71h-69.41v-.53h3.46c5.22,0,9.46-4.23,9.46-9.46V10.59c0-4.57-3.71-8.28-8.28-8.28h-4.24v-.53l66.04-.32v24.2h-.52l-2.07-8.83c-.76-.76-.61-14.52-21.19-14.52h-19.34v45.75h5.66c4.1,0,11.12-.2,13.53-.87,5.99-1.66,9.26-7.51,9.45-15.37h.52v32.47h-.52c-.33-9.79-3.53-13.31-9.19-14.91-2.28-.67-9.5-.8-13.79-.8h-5.66v36.57c0,5.14,4.17,9.31,9.31,9.31h10.22c14.54-.33,20.15-5.31,24.59-13.82,1.53-2.94,2.67-6.07,3.44-9.3l.96-4.06Z"/>
        <path class="cls-1" d="m732.77,1.34v.52h-.83c-9.5,0-13.77,7.23-13.77,23.51v37.59c0,26.58-19.08,32.04-29.89,32.04-23.28,0-31.98-15.06-31.98-34.7V10.29c0-4.43-2.79-8.43-7.22-8.43h-3.82v-.52h33.91v.52h-3.82c-4.43,0-8.03,3.6-8.03,8.03v52.81c0,22.08,10.57,31.33,23.2,31.33,7.91,0,27.09-5.21,27.09-31.07V25.37c0-16.35-3.82-23.51-13.32-23.51h-.89v-.52h29.38Z"/>
        <path class="cls-1" d="m607.97,1.59h36.65v.54h-4.59c-8.54,0-13.36,7.15-13.36,16.03v76.79h-.5l-62.5-87.06v70.29c0,14.62,9.84,16.28,13.11,16.28h5.04v.54h-36.68v-.54h4.55c4.73,0,13.42-1.39,13.42-16.28V5.3h0c-1.32-1.93-3.5-3.08-5.83-3.08h-6.59v-.54h22.55l52.87,74.9V18.16c0-13.22-7.89-16.03-13.11-16.03h-5.04v-.54Z"/>
      </g>
    </g>
  </g>
</svg>